<mxfile host="app.diagrams.net" modified="2023-04-18T15:56:24.089Z" agent="Mozilla/5.0 (Windows NT 10.0; Win64; x64) AppleWebKit/537.36 (KHTML, like Gecko) Chrome/112.0.0.0 Safari/537.36" etag="d7_B68TULsaOZ2Rexpte" version="21.1.8" type="device">
  <diagram name="PÃ¡gina-1" id="impTWkgLN7Rca8P2YXY8">
    <mxGraphModel dx="1674" dy="796" grid="1" gridSize="10" guides="1" tooltips="1" connect="1" arrows="1" fold="1" page="1" pageScale="1" pageWidth="827" pageHeight="1169" math="0" shadow="0">
      <root>
        <mxCell id="0" />
        <mxCell id="1" parent="0" />
        <mxCell id="CaXlAG1vHixGUztOJl2i-21" value="&lt;p style=&quot;margin:0px;margin-top:4px;text-align:center;&quot;&gt;&lt;b&gt;Vehicle&lt;/b&gt;&lt;/p&gt;&lt;hr size=&quot;1&quot;&gt;&lt;p style=&quot;margin:0px;margin-left:4px;&quot;&gt;+ Cotxe: String&lt;/p&gt;&lt;p style=&quot;margin:0px;margin-left:4px;&quot;&gt;Matricula: String&lt;/p&gt;&lt;p style=&quot;margin:0px;margin-left:4px;&quot;&gt;Color: String&lt;/p&gt;&lt;p style=&quot;margin:0px;margin-left:4px;&quot;&gt;KM_Total: int&lt;/p&gt;&lt;hr size=&quot;1&quot;&gt;&lt;p style=&quot;margin:0px;margin-left:4px;&quot;&gt;+ accelerar(rpm): void&lt;/p&gt;" style="verticalAlign=top;align=left;overflow=fill;fontSize=12;fontFamily=Helvetica;html=1;whiteSpace=wrap;flipH=1;flipV=1;direction=east;labelBackgroundColor=none;rounded=1;" vertex="1" parent="1">
          <mxGeometry x="170" y="480" width="190" height="120" as="geometry" />
        </mxCell>
        <mxCell id="CaXlAG1vHixGUztOJl2i-22" value="&lt;p style=&quot;margin:0px;margin-top:4px;text-align:center;&quot;&gt;&lt;b&gt;Viatge&lt;/b&gt;&lt;/p&gt;&lt;hr size=&quot;1&quot;&gt;&lt;p style=&quot;margin:0px;margin-left:4px;&quot;&gt;+ distancia: double&lt;/p&gt;&lt;p style=&quot;margin:0px;margin-left:4px;&quot;&gt;punt_inici : String&lt;/p&gt;&lt;p style=&quot;margin:0px;margin-left:4px;&quot;&gt;punt_final : String&lt;/p&gt;&lt;hr size=&quot;1&quot;&gt;&lt;p style=&quot;margin:0px;margin-left:4px;&quot;&gt;+ imprimir_ruta(): String&lt;/p&gt;" style="verticalAlign=top;align=left;overflow=fill;fontSize=12;fontFamily=Helvetica;html=1;whiteSpace=wrap;labelBackgroundColor=none;rounded=1;" vertex="1" parent="1">
          <mxGeometry x="510" y="480" width="210" height="120" as="geometry" />
        </mxCell>
        <mxCell id="CaXlAG1vHixGUztOJl2i-27" value="" style="endArrow=none;html=1;edgeStyle=orthogonalEdgeStyle;rounded=0;" edge="1" parent="1">
          <mxGeometry relative="1" as="geometry">
            <mxPoint x="199" y="1040" as="sourcePoint" />
            <mxPoint x="334" y="1040" as="targetPoint" />
          </mxGeometry>
        </mxCell>
        <mxCell id="CaXlAG1vHixGUztOJl2i-30" value="ASSOCIACIO" style="text;align=center;fontStyle=1;verticalAlign=middle;spacingLeft=3;spacingRight=3;strokeColor=none;rotatable=0;points=[[0,0.5],[1,0.5]];portConstraint=eastwest;html=1;" vertex="1" parent="1">
          <mxGeometry x="224" y="990" width="80" height="26" as="geometry" />
        </mxCell>
        <mxCell id="CaXlAG1vHixGUztOJl2i-31" value="" style="endArrow=open;endFill=1;endSize=12;html=1;rounded=0;" edge="1" parent="1">
          <mxGeometry width="160" relative="1" as="geometry">
            <mxPoint x="199" y="1060" as="sourcePoint" />
            <mxPoint x="339" y="1060" as="targetPoint" />
          </mxGeometry>
        </mxCell>
        <mxCell id="CaXlAG1vHixGUztOJl2i-32" value="" style="endArrow=diamondThin;endFill=0;endSize=24;html=1;rounded=0;" edge="1" parent="1">
          <mxGeometry width="160" relative="1" as="geometry">
            <mxPoint x="469" y="1050" as="sourcePoint" />
            <mxPoint x="629" y="1050" as="targetPoint" />
          </mxGeometry>
        </mxCell>
        <mxCell id="CaXlAG1vHixGUztOJl2i-33" value="HERENCIA" style="text;align=center;fontStyle=1;verticalAlign=middle;spacingLeft=3;spacingRight=3;strokeColor=none;rotatable=0;points=[[0,0.5],[1,0.5]];portConstraint=eastwest;html=1;" vertex="1" parent="1">
          <mxGeometry x="499" y="1000" width="80" height="26" as="geometry" />
        </mxCell>
        <mxCell id="CaXlAG1vHixGUztOJl2i-41" value="" style="endArrow=none;html=1;edgeStyle=orthogonalEdgeStyle;rounded=0;" edge="1" parent="1">
          <mxGeometry relative="1" as="geometry">
            <mxPoint x="360" y="550" as="sourcePoint" />
            <mxPoint x="510" y="550" as="targetPoint" />
          </mxGeometry>
        </mxCell>
        <mxCell id="CaXlAG1vHixGUztOJl2i-42" value="1:N" style="edgeLabel;resizable=0;html=1;align=left;verticalAlign=bottom;" connectable="0" vertex="1" parent="CaXlAG1vHixGUztOJl2i-41">
          <mxGeometry x="-1" relative="1" as="geometry" />
        </mxCell>
        <mxCell id="CaXlAG1vHixGUztOJl2i-43" value="1" style="edgeLabel;resizable=0;html=1;align=right;verticalAlign=bottom;" connectable="0" vertex="1" parent="CaXlAG1vHixGUztOJl2i-41">
          <mxGeometry x="1" relative="1" as="geometry" />
        </mxCell>
        <mxCell id="CaXlAG1vHixGUztOJl2i-46" value="&lt;p style=&quot;margin:0px;margin-top:4px;text-align:center;&quot;&gt;&lt;b&gt;Automobil&lt;/b&gt;&lt;/p&gt;&lt;hr size=&quot;1&quot;&gt;&lt;p style=&quot;margin:0px;margin-left:4px;&quot;&gt;+ id_cotxe: Type&lt;/p&gt;&lt;hr size=&quot;1&quot;&gt;&lt;p style=&quot;margin:0px;margin-left:4px;&quot;&gt;&lt;br&gt;&lt;/p&gt;" style="verticalAlign=top;align=left;overflow=fill;fontSize=12;fontFamily=Helvetica;html=1;whiteSpace=wrap;" vertex="1" parent="1">
          <mxGeometry x="170" y="770" width="190" height="80" as="geometry" />
        </mxCell>
        <mxCell id="CaXlAG1vHixGUztOJl2i-47" value="&lt;p style=&quot;margin:0px;margin-top:4px;text-align:center;&quot;&gt;&lt;b&gt;Autobus&lt;/b&gt;&lt;/p&gt;&lt;hr size=&quot;1&quot;&gt;&lt;p style=&quot;margin:0px;margin-left:4px;&quot;&gt;+ companyia: Type&lt;/p&gt;&lt;p style=&quot;margin:0px;margin-left:4px;&quot;&gt;permis_nec&lt;/p&gt;&lt;p style=&quot;margin:0px;margin-left:4px;&quot;&gt;id_autocar&lt;/p&gt;&lt;p style=&quot;margin:0px;margin-left:4px;&quot;&gt;pisos&lt;/p&gt;&lt;hr size=&quot;1&quot;&gt;&lt;p style=&quot;margin:0px;margin-left:4px;&quot;&gt;&lt;br&gt;&lt;/p&gt;" style="verticalAlign=top;align=left;overflow=fill;fontSize=12;fontFamily=Helvetica;html=1;whiteSpace=wrap;" vertex="1" parent="1">
          <mxGeometry x="510" y="770" width="210" height="120" as="geometry" />
        </mxCell>
        <mxCell id="CaXlAG1vHixGUztOJl2i-52" value="" style="endArrow=diamondThin;endFill=0;endSize=24;html=1;rounded=0;exitX=0;exitY=0;exitDx=0;exitDy=0;entryX=0.5;entryY=1;entryDx=0;entryDy=0;" edge="1" parent="1" source="CaXlAG1vHixGUztOJl2i-46" target="CaXlAG1vHixGUztOJl2i-21">
          <mxGeometry width="160" relative="1" as="geometry">
            <mxPoint x="170" y="699" as="sourcePoint" />
            <mxPoint x="280" y="630" as="targetPoint" />
            <Array as="points">
              <mxPoint x="170" y="640" />
            </Array>
          </mxGeometry>
        </mxCell>
        <mxCell id="CaXlAG1vHixGUztOJl2i-54" value="" style="endArrow=diamondThin;endFill=0;endSize=24;html=1;rounded=0;exitX=0.467;exitY=0.02;exitDx=0;exitDy=0;exitPerimeter=0;" edge="1" parent="1" source="CaXlAG1vHixGUztOJl2i-47">
          <mxGeometry width="160" relative="1" as="geometry">
            <mxPoint x="339" y="690" as="sourcePoint" />
            <mxPoint x="260" y="600" as="targetPoint" />
            <Array as="points">
              <mxPoint x="600" y="610" />
            </Array>
          </mxGeometry>
        </mxCell>
        <mxCell id="CaXlAG1vHixGUztOJl2i-55" value="&lt;p style=&quot;margin:0px;margin-top:4px;text-align:center;&quot;&gt;&lt;b&gt;DGT&lt;/b&gt;&lt;/p&gt;&lt;hr size=&quot;1&quot;&gt;&lt;p style=&quot;margin:0px;margin-left:4px;&quot;&gt;&lt;br&gt;&lt;/p&gt;&lt;hr size=&quot;1&quot;&gt;&lt;p style=&quot;margin:0px;margin-left:4px;&quot;&gt;&lt;br&gt;&lt;/p&gt;" style="verticalAlign=top;align=left;overflow=fill;fontSize=12;fontFamily=Helvetica;html=1;whiteSpace=wrap;" vertex="1" parent="1">
          <mxGeometry x="360" y="280" width="160" height="70" as="geometry" />
        </mxCell>
        <mxCell id="CaXlAG1vHixGUztOJl2i-56" value="" style="endArrow=open;endFill=1;endSize=12;html=1;rounded=0;exitX=0.537;exitY=1.008;exitDx=0;exitDy=0;exitPerimeter=0;" edge="1" parent="1" source="CaXlAG1vHixGUztOJl2i-21" target="CaXlAG1vHixGUztOJl2i-55">
          <mxGeometry width="160" relative="1" as="geometry">
            <mxPoint x="250" y="440" as="sourcePoint" />
            <mxPoint x="390" y="440" as="targetPoint" />
            <Array as="points">
              <mxPoint x="258" y="320" />
            </Array>
          </mxGeometry>
        </mxCell>
        <mxCell id="CaXlAG1vHixGUztOJl2i-58" value="REGISTRE" style="text;strokeColor=none;fillColor=none;align=left;verticalAlign=middle;spacingTop=-1;spacingLeft=4;spacingRight=4;rotatable=0;labelPosition=right;points=[];portConstraint=eastwest;" vertex="1" parent="1">
          <mxGeometry x="240" y="400" width="20" as="geometry" />
        </mxCell>
      </root>
    </mxGraphModel>
  </diagram>
</mxfile>
